<svg xmlns="http://www.w3.org/2000/svg" width="64" height="64" viewBox="0 0 16.933 16.933" version="1.1" id="svg8"><defs id="defs2"><style id="style10">.cls-1{fill:#313673}.cls-3{fill:#fff}</style></defs><g id="layer1"><g id="g88" transform="translate(3.16 2.096) scale(.26458)"><g id="g922" transform="translate(-11.948 1.073) scale(.17736)"><path class="cls-1" d="M367.46 473.29c0-64.73-80.74-117.5-180.33-117.5-99.59 0-180.34 52.77-180.34 117.5v6.88c0 68.68 70.57 124.29 180.33 124.29 110.44 0 180.36-55.61 180.36-124.28z" transform="translate(-6.77 -346.05)" id="path42"/><path d="M360.56 473.23c0 61-77.64 110.5-173.4 110.5s-173.4-49.47-173.4-110.5 77.63-110.51 173.4-110.51c95.77 0 173.4 49.48 173.4 110.51" transform="translate(-6.77 -346.05)" id="path44" fill="#f4cf00"/><path class="cls-3" d="M15.77 510.91c8.35 17.88 16.71 26.4 16.71 26.4 3.68-7.09 4-10.87 8-12.33 5.84-2.13 8 .89 27.19 3.44 30.34 4 43.51 5.22 96.26.52 38.24-3.4 12.59-44.39 3.83-66.34-8.76-21.95-17.9-41.44-23.07-52.57-5.17-11.13-11.53-22.17-20.28-31.57-8.75-9.4-23.86-24.53-28.24-28.1-4.38-3.57-11.93 2.39-14.72 4.78-2.79 2.39-19.52 9.92-14.12 17.3 0 0 2.59 4.48 4.78 6 2.19 1.52-12.37-4.44-12.37 4.14s13.32 7.16 17.1 8.75c3.78 1.59 7.56 1.59 11.73 3.78 4.17 2.19 11 5 16.46 4.77 5.46-.23 7.41-3 10.19 4.18 2.78 7.18 9.75 23.47 8.55 40-1.2 16.53.27 38.77 3.45 46.92 0 0-63.84-30-115.94-19.88 0 0-2 26 4.49 39.83" transform="translate(-6.77 -346.05)" id="path46"/><path class="cls-1" d="M33.28 542.66l-3.07-3.13c-.36-.36-8.84-9.12-17.32-27.28-6.72-14.41-4.89-40.31-4.78-41.41l.18-2.42 2.38-.46c43.66-8.5 94.39 10.19 111.78 17.44-2.17-11.16-2.77-28.77-1.85-41.59 1.07-14.72-4.66-29.26-7.74-37.08l-.6-1.52c-1-2.45-1.53-2.85-1.55-2.86a10.5 10.5 0 00-1.74.25 25.94 25.94 0 01-3.82.46c-7.15.28-15.63-3.86-18.05-5.13a24.92 24.92 0 00-6.07-2 33.9 33.9 0 01-5.43-1.64 22.44 22.44 0 00-3.75-.65c-5.35-.68-15.29-1.94-15.29-11a7.38 7.38 0 012.61-6 9.48 9.48 0 015.76-1.92l-.31-.51a8.09 8.09 0 01-1.42-6.34c1.16-5.85 8.56-10.38 13.46-13.37 1.08-.67 2.31-1.42 2.68-1.73 10-8.54 15.72-7.34 18.8-4.83 4.55 3.72 19.94 19.14 28.56 28.39 7.89 8.48 14.51 18.77 20.84 32.4l1 2c5.2 11.2 13.92 29.95 22.19 50.7 1.28 3.21 3 6.91 4.74 10.81 7.43 16.35 16.69 36.7 9.32 49.36-3.54 6.08-10.46 9.61-20.57 10.51-53 4.71-66.32 3.54-97-.54a168.72 168.72 0 01-17-3.1c-5-1.15-6.26-1.38-8.66-.51-1.43.52-2 1.46-3.63 5.25-.67 1.52-1.49 3.41-2.61 5.56zm-14.63-33.1a116.41 116.41 0 0013.08 21.92l.36-.82c1.75-4 3.14-7.16 7.26-8.67 4.12-1.51 7.11-.9 12.27.28a162.42 162.42 0 0016.43 3c30.12 4 43.2 5.16 95.56.51 8-.72 13.16-3.13 15.63-7.38 5.72-9.82-2.78-28.51-9.61-43.53-1.81-4-3.52-7.73-4.86-11.09-8.2-20.58-16.87-39.23-22.05-50.37l-.95-2c-6-13-12.3-22.78-19.73-30.75-9.07-9.75-24-24.55-27.92-27.79-1.57-1.28-5.85.61-10.64 4.72a29.59 29.59 0 01-3.48 2.29c-3.22 2-9.92 6.07-10.53 9.18a1.71 1.71 0 00.42 1.5l.18.29c.91 1.56 2.76 4.24 3.86 5a3.3 3.3 0 011.31 4.08c-1.06 2.46-3.59 2-5 1.69-3.84-.77-6.21-.81-7-.12a1.42 1.42 0 00-.29 1.07c0 2.67 2.28 3.78 9.74 4.72a22.3 22.3 0 015.42 1.1 28.35 28.35 0 004.44 1.32 30.67 30.67 0 017.54 2.58c4.27 2.24 10.43 4.57 14.86 4.41a20.86 20.86 0 002.94-.37c4-.71 7.5-.71 10.33 6.57l.59 1.49c3 7.7 9.34 23.71 8.17 39.86-1.19 16.45.36 38.16 3.24 45.54l2.89 7.42-7.2-3.38c-.62-.29-61.53-28.53-111.56-20.08-.35 6.66-.61 25.25 4.3 35.81z" transform="translate(-6.77 -346.05)" id="path48"/><path class="cls-1" d="M66 381a30 30 0 0110.47 2.61c3.07 1.48 4.54 3.11 7.51 1.88.44-.18.89-.34 1.33-.5 6.88-2.49 6.88-2.49 11.75 2.94 4 4.4 7.11 5.35 10.18 3.64-3.9-3.82-8.21-7.56-11.92-11.82-4.59-5.28-4.43-6.52-.7-12l-.54-.81c-1.27 1-2.57 1.92-3.8 2.94-.83.67-1.57 1.45-2.35 2.17-.86-1-2-1.91-2.51-3.08-.56-1.35-.52-2.94-1.54-4.48-.23 2.47-.47 4.94-.72 7.65l-4.06.47 3.56 1.49c-.13.78-.26 1.61-.42 2.57 4.14-2.79 6.59-4.38 8.19 2.59-3.07.94-5.47 1.38-8.62 2.1-2.18.5-8.63-6.23-10.22-7.75" transform="translate(-6.77 -346.05)" id="path50"/><path class="cls-3" d="M355.67 510.91c-8.35 17.88-16.71 26.4-16.71 26.4-3.68-7.09-3.95-10.87-8-12.33-5.83-2.13-8 .89-27.18 3.44-30.34 4-43.51 5.22-96.26.52-38.24-3.4-12.59-44.39-3.84-66.34 8.75-21.95 17.9-41.44 23.07-52.57 5.17-11.13 11.54-22.17 20.29-31.57 8.75-9.4 23.86-24.53 28.24-28.1 4.38-3.57 11.93 2.39 14.72 4.78 2.79 2.39 19.52 9.92 14.12 17.3 0 0-2.59 4.48-4.78 6-2.19 1.52 12.33-4.43 12.33 4.12s-13.32 7.16-17.1 8.75c-3.78 1.59-7.56 1.59-11.73 3.78-4.17 2.19-11 5-16.46 4.77-5.46-.23-7.41-3-10.19 4.18-2.78 7.18-9.75 23.47-8.55 40 1.2 16.53-.27 38.77-3.45 46.92 0 0 67.88-30.62 120-20.47 0 0-2.08 26.6-8.53 40.42" transform="translate(-6.77 -346.05)" id="path52"/><path class="cls-1" d="M338.16 542.66l-2-3.89c-1.12-2.15-1.95-4-2.61-5.55-1.66-3.8-2.2-4.74-3.63-5.26-2.4-.87-3.67-.64-8.67.51a167.82 167.82 0 01-17 3.1c-30.64 4.08-43.93 5.25-97 .54-10.11-.9-17-4.44-20.57-10.51-7.37-12.66 1.88-33 9.32-49.36 1.78-3.9 3.46-7.6 4.74-10.81 8.27-20.75 17-39.51 22.2-50.71l.94-2c6.33-13.63 12.95-23.92 20.84-32.4 8.61-9.25 24-24.68 28.56-28.39 3.08-2.51 8.84-3.71 18.8 4.82.36.32 1.6 1.07 2.68 1.74 4.9 3 12.3 7.52 13.46 13.37a8.13 8.13 0 01-1.42 6.34l-.31.51a9.48 9.48 0 015.76 1.92 7.37 7.37 0 012.61 6c0 9.09-9.95 10.35-15.29 11a22.6 22.6 0 00-3.76.65 33.5 33.5 0 01-5.42 1.64 24.92 24.92 0 00-6.07 2c-2.43 1.27-10.89 5.41-18 5.13a25.76 25.76 0 01-3.82-.46 8.29 8.29 0 00-1.81-.23 8 8 0 00-1.49 2.84l-.6 1.52c-3.08 7.82-8.81 22.36-7.74 37.07.93 12.87.32 30.56-1.87 41.72a322.58 322.58 0 0134.87-11.67c39.4-10.72 65.78-9.44 81-6.49l2.78.55-.22 2.82c-.09 1.11-2.2 27.34-8.82 41.52-8.48 18.16-17 26.92-17.32 27.28zm-11-21.58a13.8 13.8 0 014.88.91c4.13 1.51 5.51 4.67 7.27 8.67l.36.82a116.41 116.41 0 0013.08-21.92c4.92-10.55 7.24-29.32 8-36.46-50.12-8.23-114.58 20.46-115.23 20.76l-7.1 3.2 2.83-7.26c2.88-7.38 4.43-29.09 3.23-45.54-1.16-16.15 5.15-32.16 8.18-39.86l.59-1.49c2.83-7.28 6.35-7.28 10.33-6.57a20.71 20.71 0 002.93.37c4.43.15 10.6-2.17 14.87-4.41a30.67 30.67 0 017.54-2.58 28.35 28.35 0 004.44-1.32 22.3 22.3 0 015.42-1.1c7.46-.94 9.74-2.05 9.74-4.72a1.42 1.42 0 00-.29-1.07c-.84-.69-3.21-.65-7.05.12-1.37.27-3.9.77-5-1.69a3.3 3.3 0 011.31-4.08c1.1-.77 2.95-3.45 3.85-5l.19-.29a1.71 1.71 0 00.42-1.5c-.61-3.11-7.32-7.21-10.54-9.18a30.16 30.16 0 01-3.5-2.33c-4.79-4.1-9.07-6-10.64-4.72-4 3.24-18.85 18-27.92 27.79-7.43 8-13.7 17.74-19.73 30.75l-.95 2c-5.18 11.14-13.85 29.79-22.05 50.38-1.34 3.36-3 7.12-4.86 11.1-6.83 15-15.34 33.7-9.61 43.52 2.47 4.25 7.59 6.66 15.63 7.38 52.36 4.66 65.44 3.5 95.56-.51a162.08 162.08 0 0016.42-3 33.81 33.81 0 017.39-1.19" transform="translate(-6.77 -346.05)" id="path54"/><path class="cls-1" d="M305.42 381a30 30 0 00-10.42 2.63c-3.07 1.48-4.54 3.11-7.52 1.88-.43-.18-.88-.34-1.32-.5-6.88-2.49-6.88-2.49-11.75 2.94-4 4.4-7.11 5.35-10.18 3.64 3.9-3.82 8.21-7.56 11.91-11.82 4.6-5.28 4.44-6.52.71-12l.54-.81c1.27 1 2.56 1.92 3.8 2.94.83.67 1.57 1.45 2.35 2.17.86-1 2-1.91 2.51-3.08.56-1.35.51-2.94 1.54-4.48.23 2.47.47 4.94.72 7.65l4.06.47-3.56 1.49c.13.78.26 1.61.42 2.57-4.14-2.79-6.59-4.38-8.19 2.59 3.07.94 5.46 1.38 8.62 2.1 2.17.5 8.63-6.23 10.22-7.75" transform="translate(-6.77 -346.05)" id="path56"/><path class="cls-1" d="M336.79 417.35c15.1 16.39 23.77 35.49 23.77 55.88 0 61-77.64 110.5-173.4 110.5s-173.4-49.47-173.4-110.5a75.39 75.39 0 019.85-36.8l-8 .56a80.74 80.74 0 00-8.8 36.3v6.88c0 68.68 70.57 124.29 180.33 124.29 110.44 0 180.36-55.61 180.36-124.28v-6.89c0-20.23-7.88-39.29-21.76-55.94z" transform="translate(-6.77 -346.05)" id="path58"/></g></g></g></svg>