<svg class="ui-pdp-icon ui-pdp-icon--protected ui-pdp-color--GRAY" xmlns="http://www.w3.org/2000/svg" width="14" height="15" viewBox="0 0 14 15"><path style="fill: rgba(0,0,0,.55);" fill-rule="nonzero" d="M.399 3.89v-.6h.6c1.87 0 3.76-.783 5.68-2.374l.383-.317.383.317c1.92 1.59 3.81 2.374 5.68 2.374h.6v.6c0 5.633-2.165 9.242-6.473 10.679l-.19.063-.19-.063C2.564 13.132.4 9.523.4 3.89zm6.663-1.743c-1.8 1.4-3.62 2.179-5.455 2.32.135 4.725 1.947 7.648 5.455 8.898 3.508-1.25 5.32-4.173 5.455-8.898-1.835-.141-3.656-.92-5.455-2.32zm-.905 6.477l3.191-3.582.896.798-4.02 4.513-2.472-2.377.831-.865 1.574 1.513z"></path></svg>