<svg class="ui-pdp-icon ui-pdp-icon--loyalty ui-pdp-color--GRAY" xmlns="http://www.w3.org/2000/svg" width="14" height="14" viewBox="0 0 14 14"><path style="fill: rgba(0,0,0,.55);" fill-rule="nonzero" d="M7.598 8.746v1.252h.6c1.657 0 3 1.343 3.001 3v.6H2.798v-.602a2.998 2.998 0 0 1 2.998-2.997h.604l-.001-1.253a3.435 3.435 0 0 1-1.578-.724l-1.586-.446-.106-.041-.739-.37A3.6 3.6 0 0 1 .402 3.947V1.599h2.486l-.2-1.2h8.618l-.2 1.2h2.489v2.346a3.6 3.6 0 0 1-1.988 3.22l-.739.37-.106.041-1.592.448a3.43 3.43 0 0 1-1.572.722zm2.65-2.272l.134-.037.688-.345a2.4 2.4 0 0 0 1.326-2.147V2.799h-1.49l-.52 3.13c-.032.187-.078.37-.138.545zm-6.505-.001a3.453 3.453 0 0 1-.139-.552L3.087 2.8H1.602v1.148a2.4 2.4 0 0 0 1.325 2.145l.687.345.129.036zm.361-4.874l.684 4.126a2.24 2.24 0 0 0 2.21 1.874c1.092 0 2.024-.79 2.204-1.868L9.89 1.6H4.104zm4.094 9.6H5.795c-.784 0-1.45.5-1.697 1.199h5.799c-.248-.699-.915-1.2-1.7-1.2z"></path></svg>